<svg xmlns="http://www.w3.org/2000/svg" width="24" height="24" viewBox="0 0 24 24" version="1.1">
	<path d="M11.136000000000001 0.026808000000000002C8.258208 0.235728 5.5469040000000005 1.4767679999999999 3.515832 3.5147760000000003C2.5309440000000003 4.503 1.807728 5.520888 1.201416 6.772056C0.40204799999999996 8.421696 0.002352 10.158984 0.000504 11.992104C-0.0037920000000000002 16.208592 2.205168 20.112336 5.826264 22.287552C7.093104 23.048544 8.484096000000001 23.567136 9.936 23.819784C13.792584000000002 24.4908 17.7174 23.249232 20.483256 20.483256C22.038072000000003 18.928368000000003 23.123088 17.007384 23.648112 14.88C23.818176 14.190936 23.929872 13.486704000000001 23.967024 12.86916C23.975976000000003 12.720192 23.992464000000002 12.592656 24.003648000000002 12.585743999999998C24.014856 12.578832000000002 24.024 12.303168 24.024 11.973168000000001C24.024 11.643168000000001 24.01476 11.37888 24.00348 11.38584C23.9922 11.392824000000001 23.975496000000003 11.27196 23.966376 11.117256C23.857560000000003 9.272808000000001 23.196816000000002 7.262112000000001 22.154616 5.604C20.359128000000002 2.7474 17.43852 0.781488 14.1 0.18228C13.190304000000001 0.019008 12.060096000000001 -0.040296000000000005 11.136000000000001 0.026808000000000002M11.232000000000001 1.5270480000000002C9.575688000000001 1.673496 8.078232 2.13876 6.71988 2.92896C4.772616 4.061736 3.246984 5.7863999999999995 2.35788 7.86C1.9431839999999998 8.827176 1.6866480000000001 9.808728 1.5549600000000001 10.932C1.506816 11.342544 1.5146160000000002 12.740328 1.567416 13.164C1.708272 14.294424000000001 1.9704 15.259368 2.405136 16.248C3.25956 18.190944000000002 4.76052 19.894632 6.5760000000000005 20.982143999999998C8.845968 22.341888 11.497416000000001 22.801872 14.076 22.283256C17.042976 21.68652 19.62252 19.820328 21.124464 17.184C21.818184000000002 15.966312 22.247400000000003 14.647368 22.43268 13.164C22.485528000000002 12.740832000000001 22.493280000000002 11.34348 22.445040000000002 10.932C22.292424 9.63 21.985344 8.5584 21.434064 7.404C20.74116 5.953032 19.611912 4.586616 18.288 3.597192C16.825896 2.5045200000000003 15.145655999999999 1.827216 13.284 1.5800880000000002C13.001616 1.5426000000000002 12.75324 1.530696 12.132 1.524888C11.6964 1.5208320000000002 11.291400000000001 1.521792 11.232000000000001 1.5270480000000002M10.152000000000001 6.047016C9.260808 6.237624 8.573592 6.88464 8.320704000000001 7.771248000000001L8.268 7.956 8.261327999999999 11.916C8.255376 15.440280000000001 8.258784 15.896664 8.292408 16.063728C8.407295999999999 16.634856000000003 8.733168000000001 17.164800000000003 9.174888 17.498808C9.413376 17.679144 9.779592000000001 17.857248000000002 10.056000000000001 17.927304C10.729896 18.098136 11.500055999999999 17.947344 12.046392 17.537616C12.284088 17.35932 17.767704000000002 12.549 17.848872 12.447552000000002C18.048384 12.198216 18.047736 11.817504000000001 17.84736 11.552208C17.776368 11.458224 12.30624 6.6561840000000005 12.040128000000001 6.454224C11.540208 6.0748560000000005 10.78416 5.9117999999999995 10.152000000000001 6.047016M10.317408 7.567104C10.243392 7.5983279999999995 10.149744 7.647431999999999 10.109304 7.676208C9.937824 7.79832 9.807768 8.021256 9.769128 8.259312C9.734976000000001 8.469792 9.734976000000001 15.530208 9.769128 15.740687999999999C9.801552000000001 15.940464 9.889152000000001 16.108848000000002 10.034088 16.250016C10.202256 16.41384 10.36944 16.475472 10.646472000000001 16.47576C10.849896000000001 16.475976 10.875960000000001 16.470216 11.025 16.392C11.148336 16.327272 11.746392 15.816384 13.632528 14.164512C14.97864 12.985584000000001 16.080000000000002 12.01104 16.080000000000002 11.998824C16.080000000000002 11.986632 14.972664 11.007192 13.619232 9.822312C11.904528 8.321136000000001 11.116871999999999 7.646520000000001 11.021232000000001 7.5971280000000005C10.904976000000001 7.5370800000000004 10.851 7.525032 10.668000000000001 7.518288C10.48356 7.511496 10.432344 7.518624 10.317408 7.567104M0.01044 12C0.01044 12.336599999999999 0.0138 12.474312000000001 0.017928 12.306000000000001C0.022056000000000003 12.137712 0.022056000000000003 11.862288 0.017928 11.694C0.0138 11.525712 0.01044 11.663400000000001 0.01044 12" stroke="none" fill="#be4eb1" fill-rule="evenodd" stroke-width="0.024"></path>
</svg>